<svg width="31" height="30" viewBox="0 0 31 30" fill="none" xmlns="http://www.w3.org/2000/svg">
<path d="M27.1907 12.5C27.1907 21.25 15.9494 28.75 15.9494 28.75C15.9494 28.75 4.70801 21.25 4.70801 12.5C4.70801 9.51631 5.89236 6.65483 8.00052 4.54505C10.1087 2.43526 12.968 1.25 15.9494 1.25C18.9307 1.25 21.79 2.43526 23.8982 4.54505C26.0063 6.65483 27.1907 9.51631 27.1907 12.5Z" stroke="#17C2EC" stroke-width="2" stroke-linecap="round" stroke-linejoin="round"/>
<path d="M15.9493 16.25C18.0187 16.25 19.6964 14.5711 19.6964 12.5C19.6964 10.4289 18.0187 8.75 15.9493 8.75C13.8798 8.75 12.2021 10.4289 12.2021 12.5C12.2021 14.5711 13.8798 16.25 15.9493 16.25Z" stroke="#17C2EC" stroke-width="2" stroke-linecap="round" stroke-linejoin="round"/>
</svg>
